<mxfile host="app.diagrams.net" modified="2024-03-21T09:44:25.913Z" agent="Mozilla/5.0 (Macintosh; Intel Mac OS X 10_15_7) AppleWebKit/537.36 (KHTML, like Gecko) Chrome/122.0.0.0 Safari/537.36" etag="7lZNrTMTsletSo11yQSX" version="24.0.7" type="github">
  <diagram name="Page-1" id="uukP3XcTdVGsUKC_aiOE">
    <mxGraphModel dx="2074" dy="1121" grid="1" gridSize="10" guides="1" tooltips="1" connect="1" arrows="1" fold="1" page="1" pageScale="1" pageWidth="827" pageHeight="1169" math="0" shadow="0">
      <root>
        <mxCell id="0" />
        <mxCell id="1" parent="0" />
        <mxCell id="AaKJuVbygOptvQp57n7Z-1" style="edgeStyle=orthogonalEdgeStyle;rounded=0;orthogonalLoop=1;jettySize=auto;html=1;" edge="1" parent="1" source="8WbEt5foAgeZKm9OIb6H-4" target="8WbEt5foAgeZKm9OIb6H-56">
          <mxGeometry relative="1" as="geometry" />
        </mxCell>
        <mxCell id="AaKJuVbygOptvQp57n7Z-2" value="微服务字典数据存储" style="edgeLabel;html=1;align=center;verticalAlign=middle;resizable=0;points=[];fontSize=14;" vertex="1" connectable="0" parent="AaKJuVbygOptvQp57n7Z-1">
          <mxGeometry x="-0.0261" y="-2" relative="1" as="geometry">
            <mxPoint as="offset" />
          </mxGeometry>
        </mxCell>
        <mxCell id="8WbEt5foAgeZKm9OIb6H-4" value="" style="rounded=0;whiteSpace=wrap;html=1;fontSize=14;" parent="1" vertex="1">
          <mxGeometry x="320" y="375" width="540" height="195" as="geometry" />
        </mxCell>
        <mxCell id="8WbEt5foAgeZKm9OIb6H-5" value="云开平台服务" style="text;html=1;align=center;verticalAlign=middle;whiteSpace=wrap;rounded=0;fontSize=14;" parent="1" vertex="1">
          <mxGeometry x="382.5" y="340" width="185" height="20" as="geometry" />
        </mxCell>
        <mxCell id="8WbEt5foAgeZKm9OIb6H-12" style="edgeStyle=orthogonalEdgeStyle;rounded=0;orthogonalLoop=1;jettySize=auto;html=1;entryX=0;entryY=0.5;entryDx=0;entryDy=0;fontSize=14;" parent="1" source="8WbEt5foAgeZKm9OIb6H-8" target="8WbEt5foAgeZKm9OIb6H-4" edge="1">
          <mxGeometry relative="1" as="geometry" />
        </mxCell>
        <mxCell id="8WbEt5foAgeZKm9OIb6H-8" value="Actor" style="shape=umlActor;verticalLabelPosition=bottom;verticalAlign=top;html=1;outlineConnect=0;fontSize=14;" parent="1" vertex="1">
          <mxGeometry x="70" y="290" width="30" height="60" as="geometry" />
        </mxCell>
        <mxCell id="8WbEt5foAgeZKm9OIb6H-11" value="云开平台开发者" style="text;html=1;align=center;verticalAlign=middle;whiteSpace=wrap;rounded=0;fontSize=14;" parent="1" vertex="1">
          <mxGeometry x="17.5" y="240" width="135" height="20" as="geometry" />
        </mxCell>
        <mxCell id="8WbEt5foAgeZKm9OIb6H-67" value="" style="edgeStyle=orthogonalEdgeStyle;rounded=0;orthogonalLoop=1;jettySize=auto;html=1;" parent="1" source="8WbEt5foAgeZKm9OIb6H-26" target="8WbEt5foAgeZKm9OIb6H-66" edge="1">
          <mxGeometry relative="1" as="geometry" />
        </mxCell>
        <mxCell id="8WbEt5foAgeZKm9OIb6H-26" value="API导入" style="rounded=0;whiteSpace=wrap;html=1;fontSize=14;" parent="1" vertex="1">
          <mxGeometry x="330" y="440" width="120" height="60" as="geometry" />
        </mxCell>
        <mxCell id="8WbEt5foAgeZKm9OIb6H-58" style="edgeStyle=orthogonalEdgeStyle;rounded=0;orthogonalLoop=1;jettySize=auto;html=1;" parent="1" source="8WbEt5foAgeZKm9OIb6H-31" edge="1">
          <mxGeometry relative="1" as="geometry">
            <mxPoint x="150" y="730" as="targetPoint" />
          </mxGeometry>
        </mxCell>
        <mxCell id="8WbEt5foAgeZKm9OIb6H-31" value="" style="shape=image;html=1;verticalAlign=top;verticalLabelPosition=bottom;labelBackgroundColor=#ffffff;imageAspect=0;aspect=fixed;image=https://cdn3.iconfinder.com/data/icons/document-icons-2/30/647714-excel-128.png;fontSize=14;" parent="1" vertex="1">
          <mxGeometry x="86" y="560" width="128" height="128" as="geometry" />
        </mxCell>
        <mxCell id="8WbEt5foAgeZKm9OIb6H-34" value="应用基本信息&lt;div style=&quot;font-size: 14px;&quot;&gt;模块&lt;/div&gt;&lt;div style=&quot;font-size: 14px;&quot;&gt;微服务信息&lt;/div&gt;&lt;div style=&quot;font-size: 14px;&quot;&gt;API信息&lt;/div&gt;&lt;div style=&quot;font-size: 14px;&quot;&gt;API请求体&lt;br style=&quot;font-size: 14px;&quot;&gt;API响应体&lt;br style=&quot;font-size: 14px;&quot;&gt;API依赖信息&lt;/div&gt;" style="shape=note;whiteSpace=wrap;html=1;backgroundOutline=1;darkOpacity=0.05;fontSize=14;" parent="1" vertex="1">
          <mxGeometry x="55" y="740" width="190" height="200" as="geometry" />
        </mxCell>
        <mxCell id="8WbEt5foAgeZKm9OIb6H-36" value="1" style="ellipse;whiteSpace=wrap;html=1;aspect=fixed;strokeWidth=2;fontFamily=Tahoma;spacingBottom=4;spacingRight=2;strokeColor=#d3d3d3;fontSize=14;" parent="1" vertex="1">
          <mxGeometry x="137.5" y="330.5" width="39" height="39" as="geometry" />
        </mxCell>
        <mxCell id="8WbEt5foAgeZKm9OIb6H-40" value="2" style="ellipse;whiteSpace=wrap;html=1;aspect=fixed;strokeWidth=2;fontFamily=Tahoma;spacingBottom=4;spacingRight=2;strokeColor=#d3d3d3;fontSize=14;" parent="1" vertex="1">
          <mxGeometry x="440.5" y="391" width="39" height="39" as="geometry" />
        </mxCell>
        <mxCell id="8WbEt5foAgeZKm9OIb6H-56" value="MySQL" style="shape=cylinder3;whiteSpace=wrap;html=1;boundedLbl=1;backgroundOutline=1;size=15;fontSize=14;" parent="1" vertex="1">
          <mxGeometry x="900" y="670" width="80" height="120" as="geometry" />
        </mxCell>
        <mxCell id="AaKJuVbygOptvQp57n7Z-7" value="" style="edgeStyle=orthogonalEdgeStyle;rounded=0;orthogonalLoop=1;jettySize=auto;html=1;" edge="1" parent="1" source="8WbEt5foAgeZKm9OIb6H-66" target="AaKJuVbygOptvQp57n7Z-6">
          <mxGeometry relative="1" as="geometry" />
        </mxCell>
        <mxCell id="8WbEt5foAgeZKm9OIb6H-66" value="创建导入Task" style="rounded=0;whiteSpace=wrap;html=1;fontSize=14;" parent="1" vertex="1">
          <mxGeometry x="479.5" y="440" width="100.5" height="60" as="geometry" />
        </mxCell>
        <mxCell id="AaKJuVbygOptvQp57n7Z-5" style="edgeStyle=orthogonalEdgeStyle;rounded=0;orthogonalLoop=1;jettySize=auto;html=1;entryX=0.5;entryY=0;entryDx=0;entryDy=0;" edge="1" parent="1" source="AaKJuVbygOptvQp57n7Z-4" target="8WbEt5foAgeZKm9OIb6H-31">
          <mxGeometry relative="1" as="geometry" />
        </mxCell>
        <mxCell id="AaKJuVbygOptvQp57n7Z-4" value="Excel上传" style="text;html=1;align=center;verticalAlign=middle;whiteSpace=wrap;rounded=0;fontSize=14;" vertex="1" parent="1">
          <mxGeometry x="110" y="380" width="80" height="30" as="geometry" />
        </mxCell>
        <mxCell id="AaKJuVbygOptvQp57n7Z-12" style="edgeStyle=orthogonalEdgeStyle;rounded=0;orthogonalLoop=1;jettySize=auto;html=1;" edge="1" parent="1" source="AaKJuVbygOptvQp57n7Z-6">
          <mxGeometry relative="1" as="geometry">
            <mxPoint x="690" y="310" as="targetPoint" />
          </mxGeometry>
        </mxCell>
        <mxCell id="AaKJuVbygOptvQp57n7Z-6" value="Excel上传" style="rounded=0;whiteSpace=wrap;html=1;fontSize=14;" vertex="1" parent="1">
          <mxGeometry x="630" y="440" width="120" height="60" as="geometry" />
        </mxCell>
        <mxCell id="AaKJuVbygOptvQp57n7Z-9" value="文件服务" style="text;html=1;align=center;verticalAlign=middle;whiteSpace=wrap;rounded=0;fontSize=14;" vertex="1" parent="1">
          <mxGeometry x="660" y="150" width="60" height="30" as="geometry" />
        </mxCell>
        <mxCell id="AaKJuVbygOptvQp57n7Z-10" value="" style="rounded=0;whiteSpace=wrap;html=1;" vertex="1" parent="1">
          <mxGeometry x="590" y="201.5" width="200" height="98.5" as="geometry" />
        </mxCell>
        <mxCell id="AaKJuVbygOptvQp57n7Z-11" value="" style="sketch=0;outlineConnect=0;fontColor=#232F3E;gradientColor=none;fillColor=#7AA116;strokeColor=none;dashed=0;verticalLabelPosition=bottom;verticalAlign=top;align=center;html=1;fontSize=12;fontStyle=0;aspect=fixed;pointerEvents=1;shape=mxgraph.aws4.file_system;" vertex="1" parent="1">
          <mxGeometry x="640" y="213.5" width="78" height="73" as="geometry" />
        </mxCell>
      </root>
    </mxGraphModel>
  </diagram>
</mxfile>
